<svg width="75" height="59" viewBox="0 0 75 59" fill="none" xmlns="http://www.w3.org/2000/svg">
<path fill-rule="evenodd" clip-rule="evenodd" d="M0.375 2.6875C0.375 2.14049 0.592299 1.61589 0.979093 1.22909C1.36589 0.842299 1.89049 0.625 2.4375 0.625H72.5625C73.1095 0.625 73.6341 0.842299 74.0209 1.22909C74.4077 1.61589 74.625 2.14049 74.625 2.6875C74.625 3.23451 74.4077 3.75911 74.0209 4.14591C73.6341 4.5327 73.1095 4.75 72.5625 4.75H2.4375C1.89049 4.75 1.36589 4.5327 0.979093 4.14591C0.592299 3.75911 0.375 3.23451 0.375 2.6875ZM0.375 29.5C0.375 28.953 0.592299 28.4284 0.979093 28.0416C1.36589 27.6548 1.89049 27.4375 2.4375 27.4375H72.5625C73.1095 27.4375 73.6341 27.6548 74.0209 28.0416C74.4077 28.4284 74.625 28.953 74.625 29.5C74.625 30.047 74.4077 30.5716 74.0209 30.9584C73.6341 31.3452 73.1095 31.5625 72.5625 31.5625H2.4375C1.89049 31.5625 1.36589 31.3452 0.979093 30.9584C0.592299 30.5716 0.375 30.047 0.375 29.5ZM0.375 56.3125C0.375 55.7655 0.592299 55.2409 0.979093 54.8541C1.36589 54.4673 1.89049 54.25 2.4375 54.25H72.5625C73.1095 54.25 73.6341 54.4673 74.0209 54.8541C74.4077 55.2409 74.625 55.7655 74.625 56.3125C74.625 56.8595 74.4077 57.3841 74.0209 57.7709C73.6341 58.1577 73.1095 58.375 72.5625 58.375H2.4375C1.89049 58.375 1.36589 58.1577 0.979093 57.7709C0.592299 57.3841 0.375 56.8595 0.375 56.3125Z" fill="#173D45"/>
</svg>
